Amstelvar-Roman-opsz-minCRIT.ufo
<glyph name="quotedbl" format="2">
  <advance width="1020"/>
  <unicode hex="0022"/>
  <outline>
    <contour>
      <point x="252" y="943" type="line"/>
      <point x="166" y="1411" type="line"/>
      <point x="166" y="1463"/>
      <point x="234" y="1558"/>
      <point x="303" y="1558" type="qcurve" smooth="yes"/>
      <point x="373" y="1558"/>
      <point x="440" y="1463"/>
      <point x="440" y="1411" type="qcurve"/>
      <point x="352" y="943" type="line"/>
    </contour>
    <contour>
      <point x="666" y="943" type="line"/>
      <point x="580" y="1411" type="line"/>
      <point x="580" y="1463"/>
      <point x="647" y="1558"/>
      <point x="717" y="1558" type="qcurve" smooth="yes"/>
      <point x="786" y="1558"/>
      <point x="854" y="1463"/>
      <point x="854" y="1411" type="qcurve"/>
      <point x="766" y="943" type="line"/>
    </contour>
  </outline>
</glyph>
<glyph name="asterisk" format="2">
  <advance width="1074"/>
  <unicode hex="002A"/>
  <outline>
    <contour>
      <point x="536" y="548" type="qcurve" smooth="yes"/>
      <point x="470" y="548"/>
      <point x="414" y="640"/>
      <point x="430" y="697" type="qcurve" smooth="yes"/>
      <point x="501" y="980" type="line"/>
      <point x="493" y="985" type="line"/>
      <point x="283" y="783" type="line" smooth="yes"/>
      <point x="249" y="748"/>
      <point x="135" y="739"/>
      <point x="101" y="801" type="qcurve" smooth="yes"/>
      <point x="65" y="862"/>
      <point x="130" y="955"/>
      <point x="177" y="968" type="qcurve" smooth="yes"/>
      <point x="456" y="1047" type="line"/>
      <point x="455" y="1055" type="line"/>
      <point x="177" y="1136" type="line" smooth="yes"/>
      <point x="130" y="1149"/>
      <point x="65" y="1243"/>
      <point x="101" y="1305" type="qcurve" smooth="yes"/>
      <point x="135" y="1365"/>
      <point x="249" y="1358"/>
      <point x="283" y="1323" type="qcurve" smooth="yes"/>
      <point x="491" y="1119" type="line"/>
      <point x="499" y="1124" type="line"/>
      <point x="430" y="1407" type="line" smooth="yes"/>
      <point x="414" y="1467"/>
      <point x="473" y="1556"/>
      <point x="536" y="1556" type="qcurve" smooth="yes"/>
      <point x="603" y="1556"/>
      <point x="660" y="1464"/>
      <point x="643" y="1407" type="qcurve" smooth="yes"/>
      <point x="572" y="1124" type="line"/>
      <point x="581" y="1119" type="line"/>
      <point x="792" y="1323" type="line" smooth="yes"/>
      <point x="825" y="1358"/>
      <point x="939" y="1365"/>
      <point x="972" y="1304" type="qcurve" smooth="yes"/>
      <point x="1009" y="1243"/>
      <point x="944" y="1149"/>
      <point x="897" y="1136" type="qcurve" smooth="yes"/>
      <point x="617" y="1057" type="line"/>
      <point x="619" y="1050" type="line"/>
      <point x="897" y="968" type="line" smooth="yes"/>
      <point x="944" y="955"/>
      <point x="1009" y="862"/>
      <point x="972" y="800" type="qcurve" smooth="yes"/>
      <point x="939" y="739"/>
      <point x="825" y="747"/>
      <point x="792" y="783" type="qcurve" smooth="yes"/>
      <point x="582" y="985" type="line"/>
      <point x="575" y="980" type="line"/>
      <point x="644" y="697" type="line" smooth="yes"/>
      <point x="660" y="640"/>
      <point x="608" y="548"/>
    </contour>
  </outline>
</glyph>
<glyph name="plus" format="2">
  <advance width="1061"/>
  <unicode hex="002B"/>
  <outline>
    <contour>
      <point x="80" y="545" type="line"/>
      <point x="80" y="719" type="line"/>
      <point x="981" y="719" type="line"/>
      <point x="981" y="545" type="line"/>
    </contour>
    <contour>
      <point x="434" y="189" type="line"/>
      <point x="434" y="1075" type="line"/>
      <point x="628" y="1075" type="line"/>
      <point x="628" y="189" type="line"/>
    </contour>
  </outline>
</glyph>
<glyph name="period" format="2">
  <advance width="614"/>
  <unicode hex="002E"/>
  <outline>
    <contour>
      <point x="145" y="138" type="qcurve" smooth="yes"/>
      <point x="145" y="202"/>
      <point x="237" y="298"/>
      <point x="307" y="298" type="qcurve" smooth="yes"/>
      <point x="378" y="298"/>
      <point x="469" y="202"/>
      <point x="469" y="138" type="qcurve" smooth="yes"/>
      <point x="469" y="74"/>
      <point x="378" y="-22"/>
      <point x="307" y="-22" type="qcurve" smooth="yes"/>
      <point x="237" y="-22"/>
      <point x="145" y="74"/>
    </contour>
  </outline>
</glyph>
<glyph name="two" format="2">
  <advance width="1026"/>
  <unicode hex="0032"/>
  <outline>
    <contour>
      <point x="22" y="0" type="line"/>
      <point x="22" y="123" type="line"/>
      <point x="39" y="252"/>
      <point x="213" y="527"/>
      <point x="410" y="670" type="qcurve" smooth="yes"/>
      <point x="579" y="794"/>
      <point x="716" y="1000"/>
      <point x="716" y="1117" type="qcurve" smooth="yes"/>
      <point x="716" y="1209"/>
      <point x="575" y="1335"/>
      <point x="470" y="1335" type="qcurve" smooth="yes"/>
      <point x="372" y="1335"/>
      <point x="201" y="1269"/>
      <point x="116" y="1196" type="qcurve"/>
      <point x="24" y="1327" type="line"/>
      <point x="93" y="1400"/>
      <point x="345" y="1520"/>
      <point x="523" y="1520" type="qcurve" smooth="yes"/>
      <point x="721" y="1520"/>
      <point x="967" y="1306"/>
      <point x="967" y="1120" type="qcurve" smooth="yes"/>
      <point x="967" y="933"/>
      <point x="726" y="652"/>
      <point x="547" y="544" type="qcurve" smooth="yes"/>
      <point x="388" y="448"/>
      <point x="249" y="286"/>
      <point x="226" y="200" type="qcurve"/>
      <point x="234" y="187" type="line"/>
      <point x="1006" y="187" type="line"/>
      <point x="1006" y="0" type="line"/>
    </contour>
  </outline>
</glyph>
<glyph name="three" format="2">
  <advance width="1015"/>
  <unicode hex="0033"/>
  <outline>
    <contour>
      <point x="1" y="149" type="qcurve"/>
      <point x="97" y="288" type="line"/>
      <point x="192" y="210"/>
      <point x="363" y="143"/>
      <point x="471" y="143" type="qcurve" smooth="yes"/>
      <point x="570" y="143"/>
      <point x="731" y="282"/>
      <point x="731" y="425" type="qcurve" smooth="yes"/>
      <point x="731" y="572"/>
      <point x="503" y="714"/>
      <point x="301" y="714" type="qcurve" smooth="yes"/>
      <point x="250" y="714" type="line"/>
      <point x="198" y="868" type="line"/>
      <point x="324" y="873" type="line" smooth="yes"/>
      <point x="504" y="880"/>
      <point x="703" y="1015"/>
      <point x="703" y="1140" type="qcurve" smooth="yes"/>
      <point x="703" y="1237"/>
      <point x="569" y="1339"/>
      <point x="470" y="1339" type="qcurve" smooth="yes"/>
      <point x="377" y="1339"/>
      <point x="219" y="1267"/>
      <point x="145" y="1203" type="qcurve"/>
      <point x="55" y="1350" type="line"/>
      <point x="114" y="1415"/>
      <point x="356" y="1520"/>
      <point x="510" y="1520" type="qcurve" smooth="yes"/>
      <point x="694" y="1520"/>
      <point x="941" y="1333"/>
      <point x="941" y="1185" type="qcurve" smooth="yes"/>
      <point x="941" y="1026"/>
      <point x="775" y="855"/>
      <point x="617" y="802" type="qcurve"/>
      <point x="617" y="795" type="line"/>
      <point x="771" y="769"/>
      <point x="975" y="567"/>
      <point x="975" y="393" type="qcurve" smooth="yes"/>
      <point x="975" y="199"/>
      <point x="694" y="-26"/>
      <point x="496" y="-26" type="qcurve" smooth="yes"/>
      <point x="339" y="-26"/>
      <point x="79" y="78"/>
    </contour>
  </outline>
</glyph>
<glyph name="four" format="2">
  <advance width="1238"/>
  <unicode hex="0034"/>
  <outline>
    <contour>
      <point x="6" y="554" type="line"/>
      <point x="725" y="1509" type="line"/>
      <point x="862" y="1481" type="line"/>
      <point x="919" y="1466" type="line"/>
      <point x="901" y="499" type="line"/>
      <point x="913" y="179" type="line"/>
      <point x="1141" y="144" type="line"/>
      <point x="1141" y="0" type="line"/>
      <point x="456" y="0" type="line"/>
      <point x="456" y="144" type="line"/>
      <point x="694" y="179" type="line"/>
      <point x="705" y="497" type="line"/>
      <point x="705" y="1268" type="line"/>
      <point x="219" y="578" type="line"/>
      <point x="224" y="567" type="line"/>
      <point x="1208" y="567" type="line"/>
      <point x="1208" y="430" type="line"/>
      <point x="26" y="400" type="line"/>
    </contour>
  </outline>
</glyph>
<glyph name="seven" format="2">
  <advance width="1019"/>
  <unicode hex="0037"/>
  <outline>
    <contour>
      <point x="24" y="1040" type="line"/>
      <point x="24" y="1500" type="line"/>
      <point x="1019" y="1500" type="line"/>
      <point x="1019" y="1407" type="line"/>
      <point x="647" y="579" type="line"/>
      <point x="511" y="1" type="line"/>
      <point x="237" y="1" type="line"/>
      <point x="237" y="74" type="line"/>
      <point x="542" y="730" type="line"/>
      <point x="779" y="1284" type="line"/>
      <point x="745" y="1320" type="line"/>
      <point x="219" y="1320" type="line"/>
      <point x="183" y="1040" type="line"/>
    </contour>
  </outline>
</glyph>
<glyph name="equal" format="2">
  <advance width="1061"/>
  <unicode hex="003D"/>
  <outline>
    <contour>
      <point x="110" y="306" type="line"/>
      <point x="110" y="501" type="line"/>
      <point x="529" y="497" type="line"/>
      <point x="951" y="501" type="line"/>
      <point x="951" y="306" type="line"/>
      <point x="529" y="310" type="line"/>
    </contour>
    <contour>
      <point x="110" y="731" type="line"/>
      <point x="110" y="926" type="line"/>
      <point x="529" y="922" type="line"/>
      <point x="951" y="926" type="line"/>
      <point x="951" y="731" type="line"/>
      <point x="529" y="735" type="line"/>
    </contour>
  </outline>
</glyph>
<glyph name="greater" format="2">
  <advance width="720"/>
  <unicode hex="003E"/>
  <outline>
    <contour>
      <point x="72" y="302" type="qcurve" smooth="yes"/>
      <point x="195" y="432"/>
      <point x="396" y="637"/>
      <point x="400" y="637" type="qcurve"/>
      <point x="396" y="637"/>
      <point x="195" y="849"/>
      <point x="71" y="984" type="qcurve" smooth="yes"/>
      <point x="18" y="1042"/>
      <point x="115" y="1131"/>
      <point x="179" y="1081" type="qcurve" smooth="yes"/>
      <point x="245" y="1029"/>
      <point x="674" y="638"/>
      <point x="677" y="634" type="qcurve"/>
      <point x="675" y="630"/>
      <point x="243" y="257"/>
      <point x="177" y="203" type="qcurve" smooth="yes"/>
      <point x="113" y="151"/>
      <point x="18" y="244"/>
    </contour>
  </outline>
</glyph>
<glyph name="C" format="2">
  <advance width="1494"/>
  <unicode hex="0043"/>
  <outline>
    <contour>
      <point x="80" y="746" type="qcurve" smooth="yes"/>
      <point x="80" y="1071"/>
      <point x="535" y="1520"/>
      <point x="886" y="1520" type="qcurve" smooth="yes"/>
      <point x="984" y="1520"/>
      <point x="1167" y="1489"/>
      <point x="1245" y="1459" type="qcurve"/>
      <point x="1260" y="1487" type="line"/>
      <point x="1389" y="1487" type="line"/>
      <point x="1389" y="1031" type="line"/>
      <point x="1232" y="1031" type="line"/>
      <point x="1180" y="1284" type="line"/>
      <point x="1120" y="1310"/>
      <point x="975" y="1337"/>
      <point x="901" y="1337" type="qcurve" smooth="yes"/>
      <point x="628" y="1337"/>
      <point x="317" y="1032"/>
      <point x="319" y="767" type="qcurve" smooth="yes"/>
      <point x="321" y="474"/>
      <point x="655" y="155"/>
      <point x="908" y="155" type="qcurve" smooth="yes"/>
      <point x="1072" y="155"/>
      <point x="1303" y="276"/>
      <point x="1367" y="367" type="qcurve"/>
      <point x="1488" y="245" type="line"/>
      <point x="1384" y="111"/>
      <point x="1070" y="-30"/>
      <point x="885" y="-30" type="qcurve" smooth="yes"/>
      <point x="540" y="-30"/>
      <point x="80" y="389"/>
    </contour>
  </outline>
</glyph>
<glyph name="J" format="2">
  <advance width="704"/>
  <unicode hex="004A"/>
  <outline>
    <contour>
      <point x="16" y="-307" type="qcurve"/>
      <point x="16" y="-161" type="line"/>
      <point x="33" y="-161"/>
      <point x="79" y="-159"/>
      <point x="114" y="-156" type="qcurve" smooth="yes"/>
      <point x="217" y="-148"/>
      <point x="296" y="-46"/>
      <point x="295" y="97" type="qcurve" smooth="yes"/>
      <point x="292" y="754" type="line"/>
      <point x="290" y="1302" type="line"/>
      <point x="52" y="1336" type="line"/>
      <point x="52" y="1500" type="line"/>
      <point x="704" y="1500" type="line"/>
      <point x="704" y="1336" type="line"/>
      <point x="514" y="1302" type="line"/>
      <point x="512" y="754" type="line"/>
      <point x="514" y="127" type="line" smooth="yes"/>
      <point x="515" y="-97"/>
      <point x="306" y="-318.0"/>
      <point x="126" y="-318.0" type="qcurve" smooth="yes"/>
      <point x="87" y="-318"/>
      <point x="49" y="-314"/>
    </contour>
  </outline>
</glyph>
<glyph name="M" format="2">
  <advance width="2200"/>
  <unicode hex="004D"/>
  <outline>
    <contour>
      <point x="82" y="0" type="line"/>
      <point x="82" y="150" type="line"/>
      <point x="290" y="185" type="line"/>
      <point x="292" y="754" type="line"/>
      <point x="290" y="1302" type="line"/>
      <point x="82" y="1336" type="line"/>
      <point x="82" y="1500" type="line"/>
      <point x="584" y="1500" type="line"/>
      <point x="859" y="811" type="line"/>
      <point x="1082" y="278" type="line"/>
      <point x="1303" y="817" type="line"/>
      <point x="1571" y="1500" type="line"/>
      <point x="2118" y="1500" type="line"/>
      <point x="2118" y="1336" type="line"/>
      <point x="1910" y="1302" type="line"/>
      <point x="1908" y="754" type="line"/>
      <point x="1910" y="185" type="line"/>
      <point x="2118" y="150" type="line"/>
      <point x="2118" y="0" type="line"/>
      <point x="1448" y="0" type="line"/>
      <point x="1448" y="150" type="line"/>
      <point x="1686" y="185" type="line"/>
      <point x="1688" y="754" type="line"/>
      <point x="1686" y="1308" type="line"/>
      <point x="1454" y="746" type="line"/>
      <point x="1148" y="-8" type="line"/>
      <point x="958" y="-8" type="line"/>
      <point x="666" y="739" type="line"/>
      <point x="447" y="1260" type="line"/>
      <point x="454" y="754" type="line"/>
      <point x="456" y="185" type="line"/>
      <point x="674" y="150" type="line"/>
      <point x="674" y="0" type="line"/>
    </contour>
  </outline>
</glyph>
<glyph name="R" format="2">
  <advance width="1489"/>
  <unicode hex="0052"/>
  <outline>
    <contour>
      <point x="82" y="0" type="line"/>
      <point x="82" y="150" type="line"/>
      <point x="290" y="186" type="line"/>
      <point x="292" y="754" type="line"/>
      <point x="290" y="1302" type="line"/>
      <point x="82" y="1336" type="line"/>
      <point x="82" y="1500" type="line"/>
      <point x="803" y="1500" type="line" smooth="yes"/>
      <point x="1020" y="1500"/>
      <point x="1230" y="1281"/>
      <point x="1230" y="1097" type="qcurve" smooth="yes"/>
      <point x="1230" y="906"/>
      <point x="973" y="676"/>
      <point x="801" y="676" type="qcurve" smooth="yes"/>
      <point x="731" y="676"/>
      <point x="458" y="686"/>
      <point x="401" y="691" type="qcurve"/>
      <point x="401" y="830" type="line"/>
      <point x="690" y="830" type="line" smooth="yes"/>
      <point x="846" y="830"/>
      <point x="988" y="959"/>
      <point x="988" y="1076" type="qcurve" smooth="yes"/>
      <point x="988" y="1189"/>
      <point x="865" y="1332"/>
      <point x="728" y="1332" type="qcurve" smooth="yes"/>
      <point x="545" y="1332" type="line"/>
      <point x="516" y="1314" type="line"/>
      <point x="512" y="736" type="line"/>
      <point x="514" y="186" type="line"/>
      <point x="730" y="150" type="line"/>
      <point x="730" y="0" type="line"/>
    </contour>
    <contour>
      <point x="684" y="750" type="line"/>
      <point x="860" y="848" type="line"/>
      <point x="1191" y="356" type="line" smooth="yes"/>
      <point x="1280" y="225"/>
      <point x="1439" y="151"/>
      <point x="1515" y="150" type="qcurve"/>
      <point x="1515" y="0" type="line"/>
      <point x="1215" y="0" type="line"/>
      <point x="1138" y="75" type="line"/>
    </contour>
  </outline>
</glyph>
<glyph name="W" format="2">
  <advance width="2196"/>
  <unicode hex="0057"/>
  <outline>
    <contour>
      <point x="-30" y="1336" type="line"/>
      <point x="-30" y="1500" type="line"/>
      <point x="565" y="1500" type="line"/>
      <point x="565" y="1336" type="line"/>
      <point x="384" y="1295" type="line"/>
      <point x="559" y="802" type="line"/>
      <point x="745" y="278" type="line"/>
      <point x="940" y="813" type="line"/>
      <point x="1081" y="1215" type="line"/>
      <point x="1167" y="974" type="line"/>
      <point x="1083" y="747" type="line"/>
      <point x="809" y="-8" type="line"/>
      <point x="631" y="-8" type="line"/>
      <point x="362" y="733" type="line"/>
      <point x="145" y="1297" type="line"/>
    </contour>
    <contour>
      <point x="763" y="1344" type="line"/>
      <point x="763" y="1500" type="line"/>
      <point x="1336" y="1500" type="line"/>
      <point x="1336" y="1344" type="line"/>
      <point x="1176" y="1303" type="line"/>
      <point x="1336" y="802" type="line"/>
      <point x="1509" y="285" type="line"/>
      <point x="1698" y="813" type="line"/>
      <point x="1864" y="1302" type="line"/>
      <point x="1667" y="1336" type="line"/>
      <point x="1667" y="1500" type="line"/>
      <point x="2246" y="1500" type="line"/>
      <point x="2246" y="1336" type="line"/>
      <point x="2051" y="1297" type="line"/>
      <point x="1851" y="752" type="line"/>
      <point x="1575" y="-8" type="line"/>
      <point x="1393" y="-8" type="line"/>
      <point x="1147" y="724" type="line"/>
      <point x="939" y="1305" type="line"/>
    </contour>
  </outline>
</glyph>
<glyph name="braceright" format="2">
  <advance width="715"/>
  <unicode hex="007D"/>
  <outline>
    <contour>
      <point x="37" y="-484" type="qcurve"/>
      <point x="37" y="-317" type="line"/>
      <point x="89" y="-319"/>
      <point x="152" y="-319"/>
      <point x="201" y="-319" type="qcurve" smooth="yes"/>
      <point x="283" y="-319"/>
      <point x="379" y="-255"/>
      <point x="379" y="-180" type="qcurve" smooth="yes"/>
      <point x="379" y="-78"/>
      <point x="203" y="223"/>
      <point x="203" y="314" type="qcurve" smooth="yes"/>
      <point x="203" y="384"/>
      <point x="286" y="516"/>
      <point x="379" y="550" type="qcurve"/>
      <point x="298" y="571"/>
      <point x="203" y="697"/>
      <point x="203" y="792" type="qcurve" smooth="yes"/>
      <point x="203" y="883"/>
      <point x="349" y="1094"/>
      <point x="349" y="1196" type="qcurve" smooth="yes"/>
      <point x="349" y="1277"/>
      <point x="258" y="1343"/>
      <point x="176" y="1343" type="qcurve" smooth="yes"/>
      <point x="127" y="1343"/>
      <point x="84" y="1343"/>
      <point x="32" y="1341" type="qcurve"/>
      <point x="32" y="1500" type="line"/>
      <point x="69" y="1503"/>
      <point x="131" y="1510"/>
      <point x="202" y="1510" type="qcurve" smooth="yes"/>
      <point x="358" y="1510"/>
      <point x="559" y="1343"/>
      <point x="559" y="1184" type="qcurve" smooth="yes"/>
      <point x="559" y="1066"/>
      <point x="419" y="834"/>
      <point x="419" y="716" type="qcurve" smooth="yes"/>
      <point x="419" y="670"/>
      <point x="494" y="631"/>
      <point x="524" y="629" type="qcurve" smooth="yes"/>
      <point x="655" y="619" type="line"/>
      <point x="655" y="451" type="line"/>
      <point x="420" y="451" type="line"/>
      <point x="420" y="364" type="line"/>
      <point x="420" y="246"/>
      <point x="589" y="-50"/>
      <point x="589" y="-168" type="qcurve" smooth="yes"/>
      <point x="589" y="-327"/>
      <point x="383" y="-495"/>
      <point x="227" y="-495" type="qcurve" smooth="yes"/>
      <point x="156" y="-495"/>
      <point x="74" y="-487"/>
    </contour>
  </outline>
</glyph>
<glyph name="sterling" format="2">
  <advance width="1072"/>
  <unicode hex="00A3"/>
  <outline>
    <contour>
      <point x="646" y="550" type="qcurve" smooth="yes"/>
      <point x="646" y="449"/>
      <point x="517" y="250"/>
      <point x="426" y="178" type="qcurve"/>
      <point x="434" y="165" type="line"/>
      <point x="804" y="158" type="line"/>
      <point x="938" y="372" type="line"/>
      <point x="1070" y="372" type="line"/>
      <point x="971" y="0" type="line"/>
      <point x="70" y="0" type="line"/>
      <point x="10" y="120" type="line"/>
      <point x="61" y="183" type="line"/>
      <point x="251" y="172"/>
      <point x="430" y="366"/>
      <point x="430" y="506" type="qcurve" smooth="yes"/>
      <point x="430" y="608"/>
      <point x="338" y="742"/>
      <point x="280" y="800" type="qcurve" smooth="yes"/>
      <point x="215" y="865"/>
      <point x="110" y="1016"/>
      <point x="110" y="1143" type="qcurve" smooth="yes"/>
      <point x="110" y="1299"/>
      <point x="349" y="1521"/>
      <point x="542" y="1521" type="qcurve" smooth="yes"/>
      <point x="665" y="1521"/>
      <point x="884" y="1436"/>
      <point x="963" y="1373" type="qcurve"/>
      <point x="857" y="1217" type="line"/>
      <point x="809" y="1247"/>
      <point x="659" y="1313"/>
      <point x="558" y="1313" type="qcurve" smooth="yes"/>
      <point x="440" y="1313"/>
      <point x="324" y="1209"/>
      <point x="324" y="1138" type="qcurve" smooth="yes"/>
      <point x="324" y="1085"/>
      <point x="413" y="961"/>
      <point x="492" y="876" type="qcurve" smooth="yes"/>
      <point x="583" y="779"/>
      <point x="646" y="623"/>
    </contour>
    <contour>
      <point x="181" y="571" type="line"/>
      <point x="127" y="727" type="line"/>
      <point x="911" y="727" type="line"/>
      <point x="901" y="571" type="line"/>
    </contour>
  </outline>
</glyph>
<glyph name="acute" format="2">
  <advance width="1024"/>
  <unicode hex="00B4"/>
  <outline>
    <contour>
      <point x="754" y="1496" type="qcurve" smooth="yes"/>
      <point x="754" y="1449"/>
      <point x="719" y="1403"/>
      <point x="678" y="1374" type="qcurve" smooth="yes"/>
      <point x="380" y="1162" type="line"/>
      <point x="286" y="1268" type="line"/>
      <point x="497" y="1495" type="line" smooth="yes"/>
      <point x="534" y="1534"/>
      <point x="605" y="1585"/>
      <point x="642" y="1585" type="qcurve" smooth="yes"/>
      <point x="691" y="1585"/>
      <point x="754" y="1531"/>
    </contour>
  </outline>
</glyph>
<glyph name="periodcentered" format="2">
  <advance width="693"/>
  <unicode hex="00B7"/>
  <outline>
    <contour>
      <point x="184" y="929" type="qcurve" smooth="yes"/>
      <point x="184" y="991"/>
      <point x="275" y="1089"/>
      <point x="347" y="1089" type="qcurve" smooth="yes"/>
      <point x="418" y="1089"/>
      <point x="509" y="991"/>
      <point x="509" y="929" type="qcurve" smooth="yes"/>
      <point x="509" y="868"/>
      <point x="417" y="771"/>
      <point x="347" y="771" type="qcurve" smooth="yes"/>
      <point x="277" y="771"/>
      <point x="184" y="868"/>
    </contour>
  </outline>
</glyph>
<glyph name="AE" format="2">
  <advance width="1941"/>
  <unicode hex="00C6"/>
  <outline>
    <contour>
      <point x="-120.0" y="0.0" type="line"/>
      <point x="-120.0" y="155.0" type="line"/>
      <point x="64.0" y="186.0" type="line"/>
      <point x="294.0" y="540.0" type="line"/>
      <point x="771" y="1317" type="line"/>
      <point x="603" y="1336" type="line"/>
      <point x="603" y="1500" type="line"/>
      <point x="1824.0" y="1500.0" type="line"/>
      <point x="1824.0" y="1131.0" type="line"/>
      <point x="1672.0" y="1131.0" type="line"/>
      <point x="1637.0" y="1332.0" type="line"/>
      <point x="1213.0" y="1332.0" type="line"/>
      <point x="1144.0" y="1312.0" type="line"/>
      <point x="1142.0" y="783.0" type="line"/>
      <point x="1144.0" y="182.0" type="line"/>
      <point x="1214.0" y="158.0" type="line"/>
      <point x="1700.0" y="158.0" type="line"/>
      <point x="1776.0" y="399.0" type="line"/>
      <point x="1928.0" y="399.0" type="line"/>
      <point x="1888.0" y="0.0" type="line"/>
      <point x="713.0" y="0.0" type="line"/>
      <point x="713.0" y="150.0" type="line"/>
      <point x="921.0" y="187.0" type="line"/>
      <point x="923.0" y="783.0" type="line"/>
      <point x="921.0" y="1277.0" type="line"/>
      <point x="908" y="1284" type="line"/>
      <point x="449.0" y="503.0" type="line"/>
      <point x="264.0" y="181.0" type="line"/>
      <point x="416.0" y="155.0" type="line"/>
      <point x="416.0" y="0.0" type="line"/>
    </contour>
    <contour>
      <point x="318" y="448" type="line"/>
      <point x="384" y="605" type="line"/>
      <point x="646" y="590" type="line"/>
      <point x="646" y="448" type="line"/>
    </contour>
    <contour>
      <point x="646" y="590" type="line"/>
      <point x="990" y="606" type="line"/>
      <point x="990" y="448" type="line"/>
      <point x="646" y="448" type="line"/>
    </contour>
    <contour>
      <point x="1033" y="713" type="line"/>
      <point x="1033" y="855" type="line"/>
      <point x="1498" y="865" type="line"/>
      <point x="1533" y="1025" type="line"/>
      <point x="1678" y="1025" type="line"/>
      <point x="1678" y="547" type="line"/>
      <point x="1533" y="547" type="line"/>
      <point x="1498" y="703" type="line"/>
    </contour>
  </outline>
</glyph>
<glyph name="divide" format="2">
  <advance width="1024"/>
  <unicode hex="00F7"/>
  <outline>
    <contour>
      <point x="80" y="546" type="line"/>
      <point x="80" y="718" type="line"/>
      <point x="944" y="718" type="line"/>
      <point x="944" y="546" type="line"/>
    </contour>
    <contour>
      <point x="369" y="294" type="qcurve" smooth="yes"/>
      <point x="369" y="351"/>
      <point x="449" y="437"/>
      <point x="512" y="437" type="qcurve" smooth="yes"/>
      <point x="575" y="437"/>
      <point x="655" y="351"/>
      <point x="655" y="294" type="qcurve" smooth="yes"/>
      <point x="655" y="238"/>
      <point x="575" y="152"/>
      <point x="512" y="152" type="qcurve" smooth="yes"/>
      <point x="449" y="152"/>
      <point x="369" y="238"/>
    </contour>
    <contour>
      <point x="369" y="971" type="qcurve" smooth="yes"/>
      <point x="369" y="1028"/>
      <point x="449" y="1114"/>
      <point x="512" y="1114" type="qcurve" smooth="yes"/>
      <point x="575" y="1114"/>
      <point x="655" y="1028"/>
      <point x="655" y="971" type="qcurve" smooth="yes"/>
      <point x="655" y="915"/>
      <point x="575" y="829"/>
      <point x="512" y="829" type="qcurve" smooth="yes"/>
      <point x="449" y="829"/>
      <point x="369" y="915"/>
    </contour>
  </outline>
</glyph>
<glyph name="tilde" format="2">
  <advance width="1024"/>
  <unicode hex="02DC"/>
  <outline>
    <contour>
      <point x="104" y="1336" type="line"/>
      <point x="143" y="1393"/>
      <point x="262" y="1494"/>
      <point x="333" y="1494" type="qcurve" smooth="yes"/>
      <point x="376" y="1494"/>
      <point x="454" y="1473"/>
      <point x="495" y="1450" type="qcurve" smooth="yes"/>
      <point x="524" y="1434"/>
      <point x="634" y="1371"/>
      <point x="677" y="1371" type="qcurve" smooth="yes"/>
      <point x="719" y="1371"/>
      <point x="786" y="1410"/>
      <point x="824" y="1460" type="qcurve"/>
      <point x="920" y="1349" type="line"/>
      <point x="879" y="1282"/>
      <point x="748" y="1190"/>
      <point x="690" y="1190" type="qcurve" smooth="yes"/>
      <point x="640" y="1190"/>
      <point x="538" y="1220"/>
      <point x="502" y="1245" type="qcurve" smooth="yes"/>
      <point x="468" y="1268"/>
      <point x="391" y="1303"/>
      <point x="361" y="1303" type="qcurve" smooth="yes"/>
      <point x="311" y="1303"/>
      <point x="220" y="1241"/>
      <point x="201" y="1213" type="qcurve"/>
    </contour>
  </outline>
</glyph>
<glyph name="horizontalbar" format="2">
  <advance width="675"/>
  <unicode hex="2015"/>
  <outline>
    <contour>
      <point x="285" y="636" type="line"/>
      <point x="13" y="636" type="line"/>
      <point x="15" y="822" type="line"/>
      <point x="329" y="822" type="line"/>
      <point x="662" y="822" type="line"/>
      <point x="660" y="636" type="line"/>
    </contour>
  </outline>
</glyph>
<glyph name="euro" format="2">
  <advance width="1168"/>
  <unicode hex="20AC"/>
  <outline>
    <contour>
      <point x="184" y="746" type="qcurve" smooth="yes"/>
      <point x="184" y="1128"/>
      <point x="500" y="1520"/>
      <point x="743" y="1520" type="qcurve" smooth="yes"/>
      <point x="858" y="1520"/>
      <point x="1052" y="1426"/>
      <point x="1123" y="1339" type="qcurve"/>
      <point x="959" y="1211" type="line"/>
      <point x="918" y="1271"/>
      <point x="809" y="1326"/>
      <point x="744" y="1326" type="qcurve" smooth="yes"/>
      <point x="583" y="1326"/>
      <point x="413" y="1071"/>
      <point x="413" y="773" type="qcurve" smooth="yes"/>
      <point x="413" y="464"/>
      <point x="594" y="155"/>
      <point x="741" y="155" type="qcurve" smooth="yes"/>
      <point x="830" y="155"/>
      <point x="962" y="251"/>
      <point x="1003" y="347" type="qcurve"/>
      <point x="1178" y="246" type="line"/>
      <point x="1106" y="120"/>
      <point x="886" y="-30"/>
      <point x="749" y="-30" type="qcurve" smooth="yes"/>
      <point x="497" y="-30"/>
      <point x="184" y="361"/>
    </contour>
    <contour>
      <point x="50" y="858" type="line"/>
      <point x="64" y="1024" type="line"/>
      <point x="906" y="1024" type="line"/>
      <point x="904" y="858" type="line"/>
    </contour>
    <contour>
      <point x="33" y="501" type="line"/>
      <point x="29" y="667" type="line"/>
      <point x="893" y="667" type="line"/>
      <point x="895" y="501" type="line"/>
    </contour>
  </outline>
</glyph>
<glyph name="rupeeIndian" format="2">
  <advance width="1199"/>
  <unicode hex="20B9"/>
  <outline>
    <contour>
      <point x="-37" y="1514" type="line"/>
      <point x="586" y="1495" type="line"/>
      <point x="1222" y="1507" type="line"/>
      <point x="1182" y="1315" type="line"/>
      <point x="837" y="1327" type="line"/>
      <point x="875" y="1290"/>
      <point x="930" y="1180"/>
      <point x="930" y="1119" type="qcurve" smooth="yes"/>
      <point x="930" y="974"/>
      <point x="776" y="748"/>
      <point x="660" y="699" type="qcurve"/>
      <point x="740" y="588"/>
      <point x="823" y="473"/>
      <point x="891" y="356" type="qcurve" smooth="yes"/>
      <point x="970" y="220"/>
      <point x="1106" y="150"/>
      <point x="1215" y="150" type="qcurve"/>
      <point x="1215" y="0" type="line"/>
      <point x="1008" y="-15" type="line"/>
      <point x="932" y="-8"/>
      <point x="826" y="72"/>
      <point x="774" y="170" type="qcurve" smooth="yes"/>
      <point x="717" y="277"/>
      <point x="560" y="522"/>
      <point x="439" y="668" type="qcurve"/>
      <point x="121" y="652" type="line"/>
      <point x="81" y="821" type="line"/>
      <point x="390" y="821" type="line" smooth="yes"/>
      <point x="546" y="821"/>
      <point x="688" y="981"/>
      <point x="688" y="1098" type="qcurve" smooth="yes"/>
      <point x="688" y="1177"/>
      <point x="616" y="1310"/>
      <point x="537" y="1338" type="qcurve"/>
      <point x="2" y="1322" type="line"/>
    </contour>
    <contour>
      <point x="800" y="1150" type="line"/>
      <point x="800" y="1165" type="line"/>
      <point x="1131" y="1175" type="line"/>
      <point x="1091" y="986" type="line"/>
      <point x="770" y="994" type="line"/>
      <point x="770" y="1008" type="line"/>
      <point x="32" y="1008" type="line"/>
      <point x="3" y="1154" type="line"/>
    </contour>
  </outline>
</glyph>
<glyph name="manat" format="2">
  <advance width="1659"/>
  <unicode hex="20BC"/>
  <outline>
    <contour>
      <point x="1595" y="164" type="line"/>
      <point x="1595" y="0" type="line"/>
      <point x="965" y="0" type="line"/>
      <point x="965" y="164" type="line"/>
      <point x="1162" y="198" type="line"/>
      <point x="1167" y="596" type="line"/>
      <point x="1163" y="861" type="line" smooth="yes"/>
      <point x="1160" y="1046"/>
      <point x="983" y="1244"/>
      <point x="786" y="1244" type="qcurve" smooth="yes"/>
      <point x="610" y="1244"/>
      <point x="424" y="1053"/>
      <point x="422" y="842" type="qcurve" smooth="yes"/>
      <point x="420" y="596" type="line"/>
      <point x="422" y="198" type="line"/>
      <point x="620" y="164" type="line"/>
      <point x="620" y="0" type="line"/>
      <point x="45" y="0" type="line"/>
      <point x="45" y="164" type="line"/>
      <point x="246" y="198" type="line"/>
      <point x="248" y="596" type="line"/>
      <point x="245" y="872" type="line" smooth="yes"/>
      <point x="242" y="1132"/>
      <point x="550" y="1421"/>
      <point x="804" y="1421" type="qcurve" smooth="yes"/>
      <point x="1082" y="1421"/>
      <point x="1389" y="1147"/>
      <point x="1387" y="904" type="qcurve" smooth="yes"/>
      <point x="1385" y="596" type="line"/>
      <point x="1387" y="198" type="line"/>
    </contour>
    <contour>
      <point x="706" y="260" type="line"/>
      <point x="723" y="662" type="line"/>
      <point x="725" y="1350" type="line"/>
      <point x="716" y="1530" type="line"/>
      <point x="916" y="1600" type="line"/>
      <point x="888" y="1350" type="line"/>
      <point x="892" y="762" type="line"/>
      <point x="916" y="330" type="line"/>
    </contour>
  </outline>
</glyph>
<glyph name="minus" format="2">
  <advance width="1024"/>
  <unicode hex="2212"/>
  <outline>
    <contour>
      <point x="70" y="536" type="line"/>
      <point x="70" y="728" type="line"/>
      <point x="954" y="728" type="line"/>
      <point x="954" y="536" type="line"/>
    </contour>
  </outline>
</glyph>
<glyph name="notequal" format="2">
  <advance width="1024"/>
  <unicode hex="2260"/>
  <outline>
    <contour>
      <point x="100" y="329" type="line"/>
      <point x="100" y="503" type="line"/>
      <point x="510" y="499" type="line"/>
      <point x="924" y="503" type="line"/>
      <point x="924" y="329" type="line"/>
      <point x="510" y="333" type="line"/>
    </contour>
    <contour>
      <point x="100" y="739" type="line"/>
      <point x="100" y="913" type="line"/>
      <point x="510" y="909" type="line"/>
      <point x="924" y="913" type="line"/>
      <point x="924" y="739" type="line"/>
      <point x="510" y="743" type="line"/>
    </contour>
    <contour>
      <point x="229" y="96" type="line"/>
      <point x="638" y="1211" type="line"/>
      <point x="793" y="1164" type="line"/>
      <point x="384" y="49" type="line"/>
    </contour>
  </outline>
</glyph>
<glyph name="breve.uc" format="2">
  <advance width="1024"/>
  <outline>
    <contour>
      <point x="759" y="1981" type="qcurve"/>
      <point x="915" y="1923" type="line"/>
      <point x="879" y="1812"/>
      <point x="669" y="1654"/>
      <point x="512" y="1654" type="qcurve"/>
      <point x="354" y="1654"/>
      <point x="144" y="1811"/>
      <point x="109" y="1923" type="qcurve"/>
      <point x="265" y="1981" type="line"/>
      <point x="295" y="1932"/>
      <point x="413" y="1836"/>
      <point x="511" y="1836" type="qcurve"/>
      <point x="609" y="1836"/>
      <point x="727" y="1932"/>
    </contour>
  </outline>
</glyph>
<glyph name="breve_acute" format="2">
  <advance width="1024"/>
  <outline>
    <contour>
      <point x="754" y="1463" type="qcurve"/>
      <point x="908" y="1415" type="line"/>
      <point x="885" y="1332"/>
      <point x="668" y="1171"/>
      <point x="519" y="1171" type="qcurve" smooth="yes"/>
      <point x="360" y="1171"/>
      <point x="144" y="1312"/>
      <point x="116" y="1412" type="qcurve"/>
      <point x="270" y="1464" type="line"/>
      <point x="301" y="1422"/>
      <point x="415" y="1335"/>
      <point x="512" y="1335" type="qcurve" smooth="yes"/>
      <point x="603" y="1335"/>
      <point x="721" y="1416"/>
    </contour>
    <contour>
      <point x="781" y="1727" type="qcurve" smooth="yes"/>
      <point x="781" y="1683"/>
      <point x="746" y="1640"/>
      <point x="705" y="1613" type="qcurve" smooth="yes"/>
      <point x="452" y="1445" type="line"/>
      <point x="359" y="1548" type="line"/>
      <point x="524" y="1726" type="line" smooth="yes"/>
      <point x="559" y="1763"/>
      <point x="632" y="1811"/>
      <point x="669" y="1811" type="qcurve" smooth="yes"/>
      <point x="718" y="1811"/>
      <point x="781" y="1760"/>
    </contour>
  </outline>
</glyph>
<glyph name="breve_grave" format="2">
  <advance width="1024"/>
  <outline>
    <contour>
      <point x="754" y="1463" type="qcurve"/>
      <point x="908" y="1415" type="line"/>
      <point x="885" y="1332"/>
      <point x="668" y="1171"/>
      <point x="519" y="1171" type="qcurve" smooth="yes"/>
      <point x="360" y="1171"/>
      <point x="144" y="1312"/>
      <point x="116" y="1412" type="qcurve"/>
      <point x="270" y="1464" type="line"/>
      <point x="301" y="1422"/>
      <point x="415" y="1335"/>
      <point x="512" y="1335" type="qcurve" smooth="yes"/>
      <point x="603" y="1335"/>
      <point x="721" y="1416"/>
    </contour>
    <contour>
      <point x="288" y="1707" type="qcurve" smooth="yes"/>
      <point x="288" y="1740"/>
      <point x="350" y="1794"/>
      <point x="399" y="1794" type="qcurve" smooth="yes"/>
      <point x="436" y="1794"/>
      <point x="501" y="1743"/>
      <point x="536" y="1706" type="qcurve" smooth="yes"/>
      <point x="701" y="1528" type="line"/>
      <point x="597" y="1433" type="line"/>
      <point x="379" y="1579" type="line" smooth="yes"/>
      <point x="338" y="1606"/>
      <point x="288" y="1663"/>
    </contour>
  </outline>
</glyph>
<glyph name="breve_tilde.uc" format="2">
  <advance width="1024"/>
  <outline>
    <contour>
      <point x="754" y="1906" type="qcurve"/>
      <point x="908" y="1858" type="line"/>
      <point x="885" y="1775"/>
      <point x="668" y="1614"/>
      <point x="519" y="1614" type="qcurve" smooth="yes"/>
      <point x="360" y="1614"/>
      <point x="144" y="1755"/>
      <point x="116" y="1855" type="qcurve"/>
      <point x="270" y="1907" type="line"/>
      <point x="301" y="1865"/>
      <point x="415" y="1778"/>
      <point x="512" y="1778" type="qcurve" smooth="yes"/>
      <point x="603" y="1778"/>
      <point x="721" y="1859"/>
    </contour>
    <contour>
      <point x="148" y="2038" type="line"/>
      <point x="179" y="2096"/>
      <point x="293" y="2214"/>
      <point x="364" y="2225" type="qcurve" smooth="yes"/>
      <point x="406" y="2231"/>
      <point x="490" y="2194"/>
      <point x="545" y="2171" type="qcurve" smooth="yes"/>
      <point x="590" y="2151"/>
      <point x="649" y="2128"/>
      <point x="691" y="2134" type="qcurve" smooth="yes"/>
      <point x="733" y="2140"/>
      <point x="793" y="2184"/>
      <point x="824" y="2235" type="qcurve"/>
      <point x="934" y="2150" type="line"/>
      <point x="903" y="2084"/>
      <point x="788" y="1960"/>
      <point x="731" y="1950" type="qcurve" smooth="yes"/>
      <point x="682" y="1943"/>
      <point x="576" y="1990"/>
      <point x="536" y="2003" type="qcurve" smooth="yes"/>
      <point x="496" y="2016"/>
      <point x="426" y="2051"/>
      <point x="397" y="2047" type="qcurve" smooth="yes"/>
      <point x="344" y="2039"/>
      <point x="276" y="1971"/>
      <point x="261" y="1943" type="qcurve"/>
    </contour>
  </outline>
</glyph>
<glyph name="brevebelow.uc" format="2">
  <advance width="1024"/>
  <outline>
    <contour>
      <point x="754" y="-100" type="qcurve"/>
      <point x="908" y="-153" type="line"/>
      <point x="885" y="-244"/>
      <point x="666" y="-422"/>
      <point x="517" y="-422" type="qcurve" smooth="yes"/>
      <point x="360" y="-422"/>
      <point x="144" y="-265"/>
      <point x="116" y="-156" type="qcurve"/>
      <point x="270" y="-99" type="line"/>
      <point x="301" y="-145"/>
      <point x="415" y="-242"/>
      <point x="512" y="-242" type="qcurve" smooth="yes"/>
      <point x="603" y="-242"/>
      <point x="721" y="-152"/>
    </contour>
  </outline>
</glyph>
<glyph name="breveinverted" format="2">
  <advance width="1024"/>
  <outline>
    <contour>
      <point x="270" y="1202" type="qcurve"/>
      <point x="116" y="1255" type="line"/>
      <point x="139" y="1346"/>
      <point x="356" y="1522"/>
      <point x="505" y="1522" type="qcurve" smooth="yes"/>
      <point x="664" y="1522"/>
      <point x="880" y="1367"/>
      <point x="908" y="1258" type="qcurve"/>
      <point x="754" y="1201" type="line"/>
      <point x="723" y="1247"/>
      <point x="609" y="1342"/>
      <point x="512" y="1342" type="qcurve" smooth="yes"/>
      <point x="421" y="1342"/>
      <point x="303" y="1254"/>
    </contour>
  </outline>
</glyph>
<glyph name="breveinverted.uc" format="2">
  <advance width="1024"/>
  <outline>
    <contour>
      <point x="270" y="1644" type="qcurve"/>
      <point x="116" y="1701" type="line"/>
      <point x="167" y="1832"/>
      <point x="390" y="1968"/>
      <point x="512" y="1968" type="qcurve"/>
      <point x="638" y="1968"/>
      <point x="861" y="1832"/>
      <point x="908" y="1701" type="qcurve"/>
      <point x="754" y="1644" type="line"/>
      <point x="713" y="1716"/>
      <point x="589" y="1789"/>
      <point x="510" y="1790" type="qcurve"/>
      <point x="439" y="1789"/>
      <point x="315" y="1716"/>
    </contour>
  </outline>
</glyph>
<glyph name="caron.alt.uc" format="2">
  <advance width="1024"/>
  <outline>
    <contour>
      <point x="374" y="1601" type="line"/>
      <point x="442" y="1953" type="line" smooth="yes"/>
      <point x="456" y="2023"/>
      <point x="532" y="2093"/>
      <point x="582" y="2093" type="qcurve" smooth="yes"/>
      <point x="622" y="2093"/>
      <point x="682" y="2053"/>
      <point x="682" y="2013" type="qcurve" smooth="yes"/>
      <point x="682" y="1973"/>
      <point x="659" y="1905"/>
      <point x="638" y="1863" type="qcurve" smooth="yes"/>
      <point x="492" y="1573" type="line"/>
    </contour>
  </outline>
</glyph>
<glyph name="caron.uc" format="2">
  <advance width="1024"/>
  <outline>
    <contour>
      <point x="512" y="1644" type="qcurve" smooth="yes"/>
      <point x="473" y="1644"/>
      <point x="389" y="1684"/>
      <point x="343" y="1735" type="qcurve" smooth="yes"/>
      <point x="142" y="1957" type="line"/>
      <point x="260" y="2050" type="line"/>
      <point x="512" y="1844" type="line"/>
      <point x="764" y="2050" type="line"/>
      <point x="882" y="1957" type="line"/>
      <point x="681" y="1735" type="line"/>
      <point x="636" y="1685"/>
      <point x="550" y="1644"/>
    </contour>
  </outline>
</glyph>
<glyph name="circumflex_grave" format="2">
  <advance width="1024"/>
  <outline>
    <contour>
      <point x="512" y="1524" type="qcurve" smooth="yes"/>
      <point x="546" y="1524"/>
      <point x="627" y="1476"/>
      <point x="662" y="1437" type="qcurve" smooth="yes"/>
      <point x="845" y="1234" type="line"/>
      <point x="747" y="1141" type="line"/>
      <point x="512" y="1341" type="line"/>
      <point x="277" y="1141" type="line"/>
      <point x="179" y="1234" type="line"/>
      <point x="362" y="1437" type="line" smooth="yes"/>
      <point x="407" y="1487"/>
      <point x="478" y="1524"/>
    </contour>
    <contour>
      <point x="265" y="1762" type="qcurve" smooth="yes"/>
      <point x="256" y="1796"/>
      <point x="299" y="1854"/>
      <point x="346" y="1867" type="qcurve" smooth="yes"/>
      <point x="382" y="1876"/>
      <point x="463" y="1842"/>
      <point x="509" y="1817" type="qcurve" smooth="yes"/>
      <point x="776" y="1672" type="line"/>
      <point x="716" y="1557" type="line"/>
      <point x="370" y="1663" type="line" smooth="yes"/>
      <point x="322" y="1678"/>
      <point x="277" y="1716"/>
    </contour>
  </outline>
</glyph>
<glyph name="circumflex_hookabove" format="2">
  <advance width="1024"/>
  <outline>
    <contour>
      <point x="512" y="1524" type="qcurve" smooth="yes"/>
      <point x="546" y="1524"/>
      <point x="627" y="1476"/>
      <point x="662" y="1437" type="qcurve" smooth="yes"/>
      <point x="830" y="1258" type="line"/>
      <point x="732" y="1165" type="line"/>
      <point x="512" y="1341" type="line"/>
      <point x="277" y="1141" type="line"/>
      <point x="179" y="1234" type="line"/>
      <point x="362" y="1437" type="line" smooth="yes"/>
      <point x="407" y="1487"/>
      <point x="478" y="1524"/>
    </contour>
    <contour>
      <point x="867" y="1038" type="line"/>
      <point x="867" y="1156" type="line"/>
      <point x="949" y="1243" type="line"/>
      <point x="965" y="1236"/>
      <point x="1025" y="1229"/>
      <point x="1046" y="1229" type="qcurve" smooth="yes"/>
      <point x="1098" y="1229"/>
      <point x="1146" y="1275"/>
      <point x="1146" y="1320" type="qcurve" smooth="yes"/>
      <point x="1146" y="1364"/>
      <point x="1067" y="1403"/>
      <point x="1023" y="1403" type="qcurve" smooth="yes"/>
      <point x="959" y="1403"/>
      <point x="891" y="1382"/>
      <point x="853" y="1362" type="qcurve"/>
      <point x="764" y="1474" type="line"/>
      <point x="819" y="1517"/>
      <point x="958" y="1552"/>
      <point x="1025" y="1552" type="qcurve" smooth="yes"/>
      <point x="1145" y="1552"/>
      <point x="1321" y="1436"/>
      <point x="1321" y="1331" type="qcurve" smooth="yes"/>
      <point x="1321" y="1239"/>
      <point x="1190" y="1110"/>
      <point x="1114" y="1110" type="qcurve" smooth="yes"/>
      <point x="1084" y="1110"/>
      <point x="1046" y="1109"/>
      <point x="1030" y="1113" type="qcurve"/>
      <point x="1030" y="1038" type="line"/>
    </contour>
  </outline>
</glyph>
<glyph name="circumflex_tilde.uc" format="2">
  <advance width="1024"/>
  <outline>
    <contour>
      <point x="512" y="1967" type="qcurve" smooth="yes"/>
      <point x="546" y="1967"/>
      <point x="627" y="1919"/>
      <point x="662" y="1880" type="qcurve" smooth="yes"/>
      <point x="845" y="1677" type="line"/>
      <point x="747" y="1584" type="line"/>
      <point x="512" y="1784" type="line"/>
      <point x="277" y="1584" type="line"/>
      <point x="179" y="1677" type="line"/>
      <point x="362" y="1880" type="line" smooth="yes"/>
      <point x="407" y="1930"/>
      <point x="478" y="1967"/>
    </contour>
    <contour>
      <point x="148" y="2028" type="line"/>
      <point x="179" y="2086"/>
      <point x="293" y="2204"/>
      <point x="364" y="2215" type="qcurve" smooth="yes"/>
      <point x="406" y="2221"/>
      <point x="507" y="2201"/>
      <point x="562" y="2178" type="qcurve" smooth="yes"/>
      <point x="607" y="2158"/>
      <point x="669" y="2138"/>
      <point x="711" y="2144" type="qcurve" smooth="yes"/>
      <point x="753" y="2150"/>
      <point x="813" y="2194"/>
      <point x="844" y="2245" type="qcurve"/>
      <point x="954" y="2160" type="line"/>
      <point x="923" y="2094"/>
      <point x="808" y="1970"/>
      <point x="751" y="1960" type="qcurve" smooth="yes"/>
      <point x="702" y="1953"/>
      <point x="594" y="2003"/>
      <point x="554" y="2016" type="qcurve" smooth="yes"/>
      <point x="514" y="2029"/>
      <point x="426" y="2041"/>
      <point x="397" y="2037" type="qcurve" smooth="yes"/>
      <point x="344" y="2029"/>
      <point x="276" y="1961"/>
      <point x="261" y="1933" type="qcurve"/>
    </contour>
  </outline>
</glyph>
<glyph name="commaaccent.uc" format="2">
  <advance width="1024"/>
  <outline>
    <contour>
      <point x="356" y="-598" type="line"/>
      <point x="400" y="-546"/>
      <point x="463" y="-452"/>
      <point x="478" y="-397" type="qcurve"/>
      <point x="419" y="-384"/>
      <point x="354" y="-326"/>
      <point x="354" y="-268" type="qcurve" smooth="yes"/>
      <point x="354" y="-214"/>
      <point x="434" y="-131"/>
      <point x="501" y="-131" type="qcurve" smooth="yes"/>
      <point x="565" y="-131"/>
      <point x="662" y="-212"/>
      <point x="662" y="-303" type="qcurve" smooth="yes"/>
      <point x="662" y="-409"/>
      <point x="519" y="-620"/>
      <point x="438" y="-685" type="qcurve"/>
    </contour>
  </outline>
</glyph>
<glyph name="commaturnedabove" format="2">
  <advance width="1024"/>
  <outline>
    <contour>
      <point x="643" y="1617" type="line"/>
      <point x="599" y="1565"/>
      <point x="536" y="1470"/>
      <point x="521" y="1415" type="qcurve"/>
      <point x="586" y="1401"/>
      <point x="645" y="1345"/>
      <point x="645" y="1287" type="qcurve" smooth="yes"/>
      <point x="645" y="1231"/>
      <point x="569" y="1147"/>
      <point x="502" y="1147" type="qcurve" smooth="yes"/>
      <point x="438" y="1147"/>
      <point x="337" y="1223"/>
      <point x="337" y="1322" type="qcurve" smooth="yes"/>
      <point x="337" y="1428"/>
      <point x="480" y="1639"/>
      <point x="561" y="1704" type="qcurve"/>
    </contour>
  </outline>
</glyph>
<glyph name="commaturnedabove.uc" format="2">
  <advance width="1024"/>
  <outline>
    <contour>
      <point x="665" y="2070" type="line"/>
      <point x="621" y="2018"/>
      <point x="557" y="1928"/>
      <point x="540" y="1870" type="qcurve"/>
      <point x="605" y="1858"/>
      <point x="669" y="1796"/>
      <point x="669" y="1740" type="qcurve" smooth="yes"/>
      <point x="669" y="1680"/>
      <point x="592" y="1597"/>
      <point x="514" y="1597" type="qcurve" smooth="yes"/>
      <point x="452" y="1597"/>
      <point x="356" y="1680"/>
      <point x="356" y="1761" type="qcurve" smooth="yes"/>
      <point x="356" y="1853"/>
      <point x="473" y="2069"/>
      <point x="583" y="2157" type="qcurve"/>
    </contour>
  </outline>
</glyph>
<glyph name="dblgrave" format="2">
  <advance width="1024"/>
  <outline>
    <contour>
      <point x="108" y="1486" type="qcurve" smooth="yes"/>
      <point x="108" y="1521"/>
      <point x="171" y="1575"/>
      <point x="220" y="1575" type="qcurve" smooth="yes"/>
      <point x="257" y="1575"/>
      <point x="333" y="1527"/>
      <point x="365" y="1485" type="qcurve" smooth="yes"/>
      <point x="539" y="1258" type="line"/>
      <point x="432" y="1162" type="line"/>
      <point x="203" y="1348" type="line" smooth="yes"/>
      <point x="164" y="1379"/>
      <point x="108" y="1439"/>
    </contour>
    <contour>
      <point x="512" y="1486" type="qcurve" smooth="yes"/>
      <point x="512" y="1521"/>
      <point x="575" y="1575"/>
      <point x="624" y="1575" type="qcurve" smooth="yes"/>
      <point x="661" y="1575"/>
      <point x="729" y="1527"/>
      <point x="763" y="1485" type="qcurve" smooth="yes"/>
      <point x="944" y="1258" type="line"/>
      <point x="830" y="1162" type="line"/>
      <point x="607" y="1348" type="line" smooth="yes"/>
      <point x="568" y="1380"/>
      <point x="512" y="1439"/>
    </contour>
  </outline>
</glyph>
<glyph name="dblgrave.uc" format="2">
  <advance width="1024"/>
  <outline>
    <contour>
      <point x="102" y="1934" type="qcurve" smooth="yes"/>
      <point x="102" y="1969"/>
      <point x="163" y="2026"/>
      <point x="212" y="2026" type="qcurve" smooth="yes"/>
      <point x="249" y="2026"/>
      <point x="327" y="1975"/>
      <point x="359" y="1933" type="qcurve" smooth="yes"/>
      <point x="539" y="1701" type="line"/>
      <point x="432" y="1605" type="line"/>
      <point x="197" y="1796" type="line" smooth="yes"/>
      <point x="158" y="1828"/>
      <point x="102" y="1887"/>
    </contour>
    <contour>
      <point x="506" y="1934" type="qcurve" smooth="yes"/>
      <point x="506" y="1969"/>
      <point x="569" y="2026"/>
      <point x="618" y="2026" type="qcurve" smooth="yes"/>
      <point x="655" y="2026"/>
      <point x="723" y="1975"/>
      <point x="757" y="1933" type="qcurve" smooth="yes"/>
      <point x="944" y="1701" type="line"/>
      <point x="830" y="1605" type="line"/>
      <point x="601" y="1796" type="line" smooth="yes"/>
      <point x="562" y="1829"/>
      <point x="506" y="1887"/>
    </contour>
  </outline>
</glyph>
<glyph name="dotbelow.uc" format="2">
  <advance width="1024"/>
  <outline>
    <contour>
      <point x="368" y="-296" type="qcurve" smooth="yes"/>
      <point x="368" y="-231"/>
      <point x="441" y="-153"/>
      <point x="512" y="-153" type="qcurve" smooth="yes"/>
      <point x="578" y="-153"/>
      <point x="656" y="-233"/>
      <point x="656" y="-296" type="qcurve" smooth="yes"/>
      <point x="656" y="-360"/>
      <point x="583" y="-435"/>
      <point x="512" y="-435" type="qcurve" smooth="yes"/>
      <point x="445" y="-435"/>
      <point x="368" y="-357"/>
    </contour>
  </outline>
</glyph>
<glyph name="hookabove" format="2">
  <advance width="1024"/>
  <outline>
    <contour>
      <point x="361" y="1100" type="line"/>
      <point x="361" y="1208" type="line"/>
      <point x="449" y="1313" type="line"/>
      <point x="465" y="1306"/>
      <point x="515" y="1299"/>
      <point x="536" y="1299" type="qcurve" smooth="yes"/>
      <point x="588" y="1299"/>
      <point x="632" y="1344"/>
      <point x="632" y="1389" type="qcurve" smooth="yes"/>
      <point x="632" y="1433"/>
      <point x="561" y="1465"/>
      <point x="517" y="1465" type="qcurve" smooth="yes"/>
      <point x="453" y="1465"/>
      <point x="324" y="1432"/>
      <point x="286" y="1414" type="qcurve"/>
      <point x="234" y="1543" type="line"/>
      <point x="294" y="1578"/>
      <point x="463" y="1609"/>
      <point x="530" y="1609" type="qcurve" smooth="yes"/>
      <point x="650" y="1609"/>
      <point x="815" y="1493"/>
      <point x="815" y="1388" type="qcurve" smooth="yes"/>
      <point x="815" y="1296"/>
      <point x="684" y="1172"/>
      <point x="608" y="1172" type="qcurve" smooth="yes"/>
      <point x="578" y="1172"/>
      <point x="540" y="1171"/>
      <point x="524" y="1175" type="qcurve"/>
      <point x="524" y="1100" type="line"/>
    </contour>
  </outline>
</glyph>
<glyph name="horn" format="2">
  <advance width="1024"/>
  <outline>
    <contour>
      <point x="-1" y="1050" type="line"/>
      <point x="39" y="1040"/>
      <point x="117" y="1029"/>
      <point x="157" y="1029" type="qcurve" smooth="yes"/>
      <point x="205" y="1029"/>
      <point x="262" y="1077"/>
      <point x="262" y="1120" type="qcurve" smooth="yes"/>
      <point x="262" y="1175"/>
      <point x="255" y="1251"/>
      <point x="245" y="1320" type="qcurve"/>
      <point x="385" y="1320" type="line"/>
      <point x="411" y="1261"/>
      <point x="443" y="1161"/>
      <point x="443" y="1084" type="qcurve" smooth="yes"/>
      <point x="443" y="989"/>
      <point x="300" y="894"/>
      <point x="199" y="894" type="qcurve" smooth="yes"/>
      <point x="159" y="894"/>
      <point x="53" y="912"/>
      <point x="-1" y="932" type="qcurve"/>
    </contour>
  </outline>
</glyph>
<glyph name="macronbelow" format="2">
  <advance width="1024"/>
  <outline>
    <contour>
      <point x="196" y="-369" type="line"/>
      <point x="196" y="-188" type="line"/>
      <point x="828" y="-188" type="line"/>
      <point x="828" y="-369" type="line"/>
    </contour>
  </outline>
</glyph>
<glyph name="tilde.uc" format="2">
  <advance width="1024"/>
  <outline>
    <contour>
      <point x="104" y="1781" type="line"/>
      <point x="143" y="1838"/>
      <point x="263" y="1939"/>
      <point x="338" y="1939" type="qcurve" smooth="yes"/>
      <point x="381" y="1939"/>
      <point x="460" y="1922"/>
      <point x="495" y="1902" type="qcurve" smooth="yes"/>
      <point x="523" y="1886"/>
      <point x="634" y="1823"/>
      <point x="677" y="1823" type="qcurve" smooth="yes"/>
      <point x="719" y="1823"/>
      <point x="786" y="1855"/>
      <point x="824" y="1905" type="qcurve"/>
      <point x="920" y="1794" type="line"/>
      <point x="883" y="1731"/>
      <point x="754" y="1634"/>
      <point x="696" y="1634" type="qcurve" smooth="yes"/>
      <point x="632" y="1634"/>
      <point x="535" y="1663"/>
      <point x="499" y="1688" type="qcurve" smooth="yes"/>
      <point x="465" y="1711"/>
      <point x="388" y="1745"/>
      <point x="358" y="1745" type="qcurve" smooth="yes"/>
      <point x="308" y="1745"/>
      <point x="220" y="1686"/>
      <point x="201" y="1658" type="qcurve"/>
    </contour>
  </outline>
</glyph>
<glyph name="tilde_macron.uc" format="2">
  <advance width="1024"/>
  <outline>
    <contour>
      <point x="118" y="1668" type="line"/>
      <point x="149" y="1726"/>
      <point x="263" y="1844"/>
      <point x="334" y="1855" type="qcurve" smooth="yes"/>
      <point x="376" y="1861"/>
      <point x="477" y="1841"/>
      <point x="532" y="1818" type="qcurve" smooth="yes"/>
      <point x="577" y="1798"/>
      <point x="639" y="1778"/>
      <point x="681" y="1784" type="qcurve" smooth="yes"/>
      <point x="723" y="1790"/>
      <point x="783" y="1834"/>
      <point x="814" y="1885" type="qcurve"/>
      <point x="924" y="1800" type="line"/>
      <point x="893" y="1734"/>
      <point x="778" y="1610"/>
      <point x="721" y="1600" type="qcurve" smooth="yes"/>
      <point x="672" y="1593"/>
      <point x="564" y="1643"/>
      <point x="524" y="1656" type="qcurve" smooth="yes"/>
      <point x="484" y="1669"/>
      <point x="396" y="1681"/>
      <point x="367" y="1677" type="qcurve" smooth="yes"/>
      <point x="314" y="1669"/>
      <point x="246" y="1601"/>
      <point x="231" y="1573" type="qcurve"/>
    </contour>
    <contour>
      <point x="196" y="1966" type="line"/>
      <point x="196" y="2137" type="line"/>
      <point x="828" y="2137" type="line"/>
      <point x="828" y="1966" type="line"/>
    </contour>
  </outline>
</glyph>
